<?xml version="1.0" encoding="UTF-8" standalone="no"?>
<!-- Created with Inkscape (http://www.inkscape.org/) -->
<svg
   xmlns:dc="http://purl.org/dc/elements/1.1/"
   xmlns:cc="http://creativecommons.org/ns#"
   xmlns:rdf="http://www.w3.org/1999/02/22-rdf-syntax-ns#"
   xmlns:svg="http://www.w3.org/2000/svg"
   xmlns="http://www.w3.org/2000/svg"
   xmlns:sodipodi="http://sodipodi.sourceforge.net/DTD/sodipodi-0.dtd"
   xmlns:inkscape="http://www.inkscape.org/namespaces/inkscape"
   width="433.10529"
   height="351.03052"
   id="svg17669"
   sodipodi:version="0.32"
   inkscape:version="0.46"
   sodipodi:docbase="C:\Documents and Settings\FRANCISCO\Escritorio\Mis SVG"
   sodipodi:docname="Pizza Slice - Trozo de Pizza.svg"
   inkscape:output_extension="org.inkscape.output.svg.inkscape"
   version="1.0">
  <defs
     id="defs17671">
    <inkscape:perspective
       sodipodi:type="inkscape:persp3d"
       inkscape:vp_x="0 : 177.5 : 1"
       inkscape:vp_y="0 : 1000 : 0"
       inkscape:vp_z="435 : 177.5 : 1"
       inkscape:persp3d-origin="217.5 : 118.33333 : 1"
       id="perspective21" />
  </defs>
  <sodipodi:namedview
     id="base"
     pagecolor="#ffffff"
     bordercolor="#666666"
     borderopacity="1.0"
     inkscape:pageopacity="0.0"
     inkscape:pageshadow="2"
     inkscape:zoom="1.0656319"
     inkscape:cx="210.83558"
     inkscape:cy="201.43263"
     inkscape:document-units="px"
     inkscape:current-layer="layer1"
     inkscape:window-width="1024"
     inkscape:window-height="721"
     inkscape:window-x="110"
     inkscape:window-y="63"
     showgrid="false" />
  <metadata
     id="metadata17674">
    <rdf:RDF>
      <cc:Work
         rdf:about="">
        <dc:format>image/svg+xml</dc:format>
        <dc:type
           rdf:resource="http://purl.org/dc/dcmitype/StillImage" />
        <dc:date />
        <dc:title>Pizza Slice - Trozo de Pizza</dc:title>
        <dc:description>http://www.luniksoft.info</dc:description>
        <cc:license
           rdf:resource="http://creativecommons.org/licenses/publicdomain/" />
        <dc:creator>
          <cc:Agent>
            <dc:title>Fco. Javier Andrade Guillade</dc:title>
          </cc:Agent>
        </dc:creator>
        <dc:coverage>pizza, slice, food, trozo, pizza, comida</dc:coverage>
      </cc:Work>
      <cc:License
         rdf:about="http://creativecommons.org/licenses/publicdomain/">
        <cc:permits
           rdf:resource="http://creativecommons.org/ns#Reproduction" />
        <cc:permits
           rdf:resource="http://creativecommons.org/ns#Distribution" />
        <cc:permits
           rdf:resource="http://creativecommons.org/ns#DerivativeWorks" />
      </cc:License>
    </rdf:RDF>
  </metadata>
  <g
     inkscape:label="Layer 1"
     inkscape:groupmode="layer"
     id="layer1"
     transform="translate(-0.94739,-1.9847736)">
    <g
       id="g17686"
       transform="translate(-211.0714,-357.7193)">
      <path
         sodipodi:nodetypes="ccccccccc"
         id="path14028"
         d="M 295.65885,602.30693 C 410.8866,589.43785 526.11434,576.56878 641.34209,563.6997 C 642.13404,552.61249 634.61058,542.7132 631.24482,532.21995 C 589.27182,466.09269 536.60759,405.905 442.9603,365.91186 C 392.47392,362.74409 397.22557,378.58295 391.286,418.77407 C 445.7321,449.85785 527.50024,458.9652 547.49681,535.18974 C 477.21185,552.01853 406.92688,568.84733 336.64192,585.67612 C 326.74263,580.3305 316.84333,580.3305 306.94404,583.89425 C 303.18231,590.03181 299.42058,596.16937 295.65885,602.30693 z"
         style="opacity:0.52657004;fill:#b98b75;fill-opacity:1;fill-rule:evenodd;stroke:none;stroke-width:1px;stroke-linecap:butt;stroke-linejoin:miter;stroke-opacity:1" />
      <path
         sodipodi:nodetypes="cccccccccccccccccccc"
         id="path4544"
         d="M 391.89807,420.97335 C 400.24305,422.97614 408.58803,424.97894 416.93301,426.98173 C 485.02806,448.01109 543.10914,485.06281 547.61543,535.1327 C 542.94224,543.47768 535.76556,549.81986 533.59586,560.16764 C 528.08817,597.21936 518.07419,593.21376 511.06441,572.18441 C 510.39681,546.98257 506.72502,544.81287 495.54274,549.15226 C 477.68448,559.16624 447.30875,559.66694 422.4407,559.66694 C 419.26961,577.1914 401.07755,573.68651 390.39597,580.69629 C 384.88828,644.45195 377.3778,642.11535 367.86452,581.19699 C 349.83936,588.54057 329.81141,581.86459 310.78485,582.19839 C 296.09768,611.40583 285.91681,614.07622 271.22964,602.22635 C 263.88606,629.93169 287.0851,640.61326 254.20588,630.26549 C 223.49635,619.75081 263.51053,684.46614 256.33385,703.68046 C 245.31611,710.85688 216.31966,675.57873 228.16954,627.76199 C 212.98167,601.55875 216.31966,589.87578 235.68002,579.6949 C 239.18491,557.16345 252.70378,549.15227 267.22405,543.64458 C 275.73593,536.63479 284.24781,529.62501 292.75969,522.61522 C 303.44126,497.07958 317.12703,489.0684 335.31909,483.56071 C 336.98809,453.85258 350.17316,448.67869 367.36382,444.0055 C 373.03841,432.32252 380.21509,424.14444 391.89807,420.97335 z"
         style="fill:#e9e9af;fill-opacity:1;fill-rule:evenodd;stroke:none;stroke-width:1px;stroke-linecap:butt;stroke-linejoin:miter;stroke-opacity:1" />
      <path
         sodipodi:nodetypes="ccccccccccccccccccccccccccccccccccccscccccccccccccccccccccccccccccccccccccccccscscccccccccccc"
         id="path1628"
         d="M 427.71488,359.70622 C 417.81211,359.64052 408.13789,361.08231 398.83988,364.14372 C 383.94314,382.68627 391.19512,399.82968 387.37113,417.67497 C 374.37706,421.25153 368.95725,430.78683 361.37113,441.39372 C 335.52171,450.35479 332.38219,456.04996 329.24613,479.61247 C 307.93956,484.95012 299.62827,495.69601 286.43363,523.20622 C 274.17341,527.1305 270.55758,531.61707 264.24613,543.11247 C 242.72306,540.80966 237.42037,555.24535 232.12113,576.73747 C 205.23609,590.79721 208.08642,614.07706 224.46488,630.29997 C 223.7001,643.55647 222.94843,656.79347 222.18363,670.04997 C 233.87962,717.6089 280.19483,730.0179 258.90238,671.58122 C 255.84317,658.57964 241.258,645.58279 249.71488,632.58122 C 264.10733,641.63598 271.47945,647.45575 273.43363,612.70622 C 287.30838,617.26841 293.64049,614.98977 297.15238,610.14372 L 367.49613,602.17497 C 367.49611,610.52448 367.49613,618.88796 367.49613,627.23747 C 370.47003,654.46275 387.51792,637.33298 394.27738,618.04997 C 393.72585,611.79955 393.17263,605.55039 392.62113,599.29997 L 510.77738,585.86247 C 512.66417,590.27765 515.75934,593.48477 521.21488,594.33122 C 531.06577,593.52903 534.62808,588.9308 535.99613,582.98747 L 639.74613,571.20622 C 645.2538,564.36333 647.75522,560.01226 641.24613,557.17497 L 536.87113,570.11247 C 536.85311,565.03664 536.9867,560.0732 538.80863,556.11247 C 541.6513,542.60853 549.35141,536.67721 558.68363,528.58122 C 564.16091,523.03455 570.54222,521.9664 571.15238,513.17497 C 593.96554,517.04911 614.80837,535.33178 639.21488,554.98747 C 644.09413,548.60681 641.50267,557.63633 642.49613,545.04997 C 578.9338,434.53642 497.03414,360.1661 427.71488,359.70622 z M 418.80863,371.01872 C 422.42721,370.87319 426.6995,371.33506 431.74613,372.54997 C 505.15171,386.9556 570.43672,455.97905 625.99613,529.33122 C 623.09778,549.12939 577.48112,482.4142 557.27738,512.48747 C 556.7675,515.29173 548.14746,524.0262 544.93363,539.26872 C 531.1618,544.29224 529.62602,552.57252 527.87113,570.48747 C 528.74711,589.41029 525.86731,588.45612 522.80863,588.73747 C 519.83467,589.01103 517.35056,589.00611 515.71488,572.76872 L 515.65238,572.76872 C 515.64349,572.613 515.68554,560.27211 516.62113,553.04997 C 519.16637,544.3004 513.30272,538.81606 505.15238,538.51872 C 496.9945,542.08778 488.84148,545.63716 480.68363,549.20622 C 474.56521,549.71609 468.45827,550.22761 462.33988,550.73747 C 454.43694,546.57327 447.60563,550.00159 438.62113,556.11247 C 432.24778,554.8378 425.86945,553.54338 419.49613,552.26872 C 417.45666,557.6223 415.41059,562.97763 413.37113,568.33122 C 405.46819,570.11574 397.58654,571.92169 389.68363,573.70622 C 388.83443,578.70696 387.97031,583.70548 387.12113,588.70622 L 385.18363,600.14372 C 384.38575,604.84225 383.57524,609.53894 382.77738,614.23747 C 379.57963,632.44598 377.53562,622.20858 374.74613,601.33122 L 372.87113,588.04997 C 372.87113,588.04997 371.93962,579.86969 371.30863,575.20622 C 368.24943,572.14702 365.21157,569.10916 362.15238,566.04997 C 356.2889,570.63877 350.42208,575.21118 344.55863,579.79997 C 340.31755,582.21807 334.99151,583.03026 326.96488,580.58122 C 332.64273,593.94642 340.46589,593.80005 353.71488,588.23747 C 358.90996,586.43029 363.43465,586.27309 365.87113,591.36247 L 301.43363,599.33122 C 303.40772,591.95197 305.3565,584.46501 313.96488,582.86247 C 302.90997,581.12387 296.6908,593.00655 288.33988,603.70622 C 281.23841,603.1597 275.46978,596.88055 270.37113,594.33122 C 259.99573,601.82456 260.98359,605.53416 261.96488,624.92497 C 255.33661,624.67003 249.22768,621.72593 242.05863,624.17497 C 239.32374,636.44265 235.5089,644.9316 243.58988,659.36247 C 261.45952,697.34928 254.45252,719.64484 229.05863,666.23747 C 227.19268,657.6565 230.08002,651.44302 230.58988,644.04997 C 236.15248,626.977 221.72865,613.13866 222.96488,605.79997 C 223.93027,596.52962 229.19579,588.34727 242.05863,582.86247 C 246.90987,560.51275 251.21881,558.1854 269.58988,551.51872 C 276.28748,539.73745 282.46093,534.44069 299.43363,532.39372 C 304.54726,503.23018 316.13264,494.07744 340.71488,490.33122 C 344.94926,487.40365 374.17424,495.34433 389.58988,503.86247 C 396.29628,499.10896 419.10272,490.49891 437.96488,495.51872 C 443.13999,489.2664 446.69583,484.15334 463.18363,479.70622 C 458.92327,479.08774 462.13957,479.84493 452.90238,477.48747 C 433.15047,452.09786 411.45109,457.1537 400.93363,457.64372 C 398.92524,454.11748 392.04281,448.3449 382.55863,446.17497 C 386.5933,453.01762 395.53432,459.44026 389.62113,459.76872 C 383.70792,460.09718 365.96596,471.84689 361.65238,486.83122 C 354.33742,480.70428 341.20014,485.13561 341.83988,481.11247 C 344.90336,461.847 359.90911,452.11635 370.55863,449.01872 C 374.61409,437.9329 386.22281,427.40581 397.30863,422.26872 C 401.0323,409.49116 399.3514,397.78674 400.37113,385.54997 C 402.93755,377.43243 407.95284,371.45529 418.80863,371.01872 z M 501.33988,553.79997 C 505.5425,553.90027 507.5886,553.45323 507.46488,562.20622 C 507.67782,566.04861 507.81936,569.95264 508.15238,573.67497 L 399.49613,587.17497 C 401.31848,585.99579 403.14251,584.8229 404.96488,583.64372 C 420.69381,585.32044 424.52054,580.50592 429.43363,567.58122 C 443.60954,573.42965 453.48075,570.63193 463.87113,559.17497 C 479.60756,564.42075 488.84818,564.2372 501.33988,553.79997 z"
         style="opacity:1;fill:#000000;fill-opacity:1;fill-rule:evenodd;stroke:none;stroke-width:1px;stroke-linecap:butt;stroke-linejoin:miter;stroke-opacity:1" />
      <path
         sodipodi:nodetypes="ccccccccccccccccccccccccccc"
         id="path2358"
         d="M 536.5668,506.22809 C 539.45103,498.47671 542.33527,490.72533 545.2195,482.97395 C 540.89315,482.97395 536.5668,482.97395 532.24045,482.97395 C 535.30495,477.20548 538.36945,471.43702 541.43395,465.66855 C 533.68257,466.9304 525.93119,468.19225 518.17981,469.4541 C 521.06404,461.88299 523.94828,454.31187 526.83251,446.74076 C 518.36007,451.60791 509.88764,456.47505 501.4152,461.3422 C 503.75864,453.23029 506.10208,445.11838 508.44552,437.00647 C 502.49679,441.33282 496.54805,445.65917 490.59932,449.98552 C 492.40197,443.13546 494.20461,436.28541 496.00726,429.43535 C 490.95985,433.22091 485.91244,437.00647 480.86503,440.79202 C 480.68476,434.12223 480.5045,427.45244 480.32423,420.78265 C 475.63735,428.1735 470.95047,435.56435 466.26359,442.9552 C 464.82147,434.12223 463.37936,425.28927 461.93724,416.4563 C 458.15168,420.78265 454.36613,425.109 450.58057,429.43535 C 449.67925,422.94583 448.77792,416.4563 447.8766,409.96677 C 446.07395,413.3918 444.27131,416.81683 442.46866,420.24186 C 439.58443,414.47339 436.70019,408.70492 433.81596,402.93645 C 432.01331,407.62333 430.21067,412.31021 428.40802,416.99709 C 424.62246,413.03127 420.8369,409.06545 417.05134,405.09963 C 417.05134,410.3273 417.05134,415.55498 417.05134,420.78265 C 413.44605,424.38794 409.84076,427.99324 406.23547,431.59853 C 413.62632,432.13932 421.01717,432.68012 428.40802,433.22091 C 437.06072,438.26832 445.71342,443.31573 454.36612,448.36314 C 449.85951,451.42764 445.35289,454.49214 440.84628,457.55664 C 472.93339,453.41055 483.92953,460.08034 493.30329,477.56601 C 517.99954,481.1713 527.55357,488.56215 536.5668,506.22809 z"
         style="fill:#000000;fill-opacity:1;fill-rule:evenodd;stroke:none;stroke-width:1px;stroke-linecap:butt;stroke-linejoin:miter;stroke-opacity:0.64245809" />
      <path
         sodipodi:nodetypes="cccccccc"
         id="path3086"
         d="M 528.08817,520.11173 C 505.55672,519.61103 486.02946,530.12571 472.51059,539.63899 C 453.65093,532.2954 440.29896,527.45531 412.92742,535.63339 C 418.60201,530.6264 424.2766,525.61942 429.95119,520.61243 C 416.76612,512.76815 409.58943,515.93924 399.40855,513.60264 C 412.59362,511.76675 426.78009,504.92386 437.46167,517.10754 C 468.6719,490.0698 501.88493,483.06002 513.0672,517.10754 C 518.07419,518.10894 523.08118,519.11033 528.08817,520.11173 z"
         style="fill:#000000;fill-opacity:1;fill-rule:evenodd;stroke:none;stroke-width:1px;stroke-linecap:butt;stroke-linejoin:miter;stroke-opacity:1" />
      <path
         sodipodi:nodetypes="ccccccccccccc"
         id="path3816"
         d="M 301.77227,533.6306 C 306.61236,536.13409 314.45664,537.63619 316.29254,541.14108 C 310.28415,544.31217 306.27856,549.48606 304.27576,555.16065 C 295.09628,554.99375 284.9154,559.33314 276.73732,566.67673 C 293.42728,565.50843 310.11725,562.33734 326.80721,570.68232 C 338.82398,562.50424 347.83656,558.33174 362.85753,558.16484 C 371.53631,542.30938 372.20391,536.96859 402.41275,536.13409 C 388.39318,529.12431 377.37781,528.12291 366.36243,537.63619 C 361.52234,534.2982 356.68225,530.9602 351.84216,527.62221 C 358.35125,520.27863 364.86033,512.93504 371.36942,505.59146 C 356.18155,509.93085 345.49998,515.77234 339.32469,529.12431 C 333.3163,528.12291 328.30931,530.12571 324.30372,533.6306 C 316.79324,531.6278 309.28275,531.6278 301.77227,533.6306 z"
         style="fill:#000000;fill-opacity:1;fill-rule:evenodd;stroke:none;stroke-width:1px;stroke-linecap:butt;stroke-linejoin:miter;stroke-opacity:0.62011168" />
      <path
         sodipodi:nodetypes="cccc"
         id="path10392"
         d="M 316.15039,556.86918 C 320.60507,557.66112 325.05975,559.344 329.51443,563.69969 C 337.73084,556.67119 345.94725,553.20644 356.83647,550.63263 C 360.49921,531.03203 322.58493,537.56556 316.15039,556.86918 z"
         style="fill:#c81919;fill-opacity:1;fill-rule:evenodd;stroke:none;stroke-width:1px;stroke-linecap:butt;stroke-linejoin:miter;stroke-opacity:1" />
      <path
         sodipodi:nodetypes="ccccc"
         id="path10394"
         d="M 371.68541,487.67314 C 376.93203,488.56408 382.47563,490.04897 386.53434,493.90969 C 401.48227,489.653 412.2725,482.42652 432.26907,488.2671 C 435.43684,485.19832 439.49555,483.02047 444.4452,482.6245 C 427.22043,455.00548 390.69205,463.91484 371.68541,487.67314 z"
         style="opacity:1;fill:#c81919;fill-opacity:1;fill-rule:evenodd;stroke:none;stroke-width:1px;stroke-linecap:butt;stroke-linejoin:miter;stroke-opacity:1" />
      <path
         sodipodi:nodetypes="cccc"
         id="path10396"
         d="M 445.33613,522.71663 C 455.23542,523.70656 463.9468,525.29045 473.25213,530.1411 C 483.25042,522.81562 489.091,519.35087 502.35605,516.1831 C 490.17992,488.96005 458.70017,502.42308 445.33613,522.71663 z"
         style="opacity:1;fill:#c81919;fill-opacity:1;fill-rule:evenodd;stroke:none;stroke-width:1px;stroke-linecap:butt;stroke-linejoin:miter;stroke-opacity:1" />
    </g>
  </g>
</svg>
